<?xml version="1.0"?>
<svg xmlns="http://www.w3.org/2000/svg" viewBox="0 0 512 512" width="512" height="512"><g id="Credit_card" data-name="Credit card"><path d="M464,96H96a40.045,40.045,0,0,0-40,40v16H48A40.045,40.045,0,0,0,8,192V384a40.045,40.045,0,0,0,40,40H416a40.045,40.045,0,0,0,40-40V368h8a40.045,40.045,0,0,0,40-40V136A40.045,40.045,0,0,0,464,96ZM48,168H416a24.027,24.027,0,0,1,24,24H24A24.027,24.027,0,0,1,48,168ZM24,208H440v40H24ZM440,384a24.027,24.027,0,0,1-24,24H48a24.027,24.027,0,0,1-24-24V264H440Zm48-56a24.027,24.027,0,0,1-24,24h-8V192a40.045,40.045,0,0,0-40-40H72V136a24.027,24.027,0,0,1,24-24H464a24.027,24.027,0,0,1,24,24Z"/><path d="M128,296a47.7,47.7,0,0,0-20,4.382,48,48,0,1,0,0,87.236A47.993,47.993,0,1,0,128,296Zm-8,48a31.946,31.946,0,0,1-12,24.953,31.944,31.944,0,0,1,0-49.906A31.946,31.946,0,0,1,120,344Zm-64,0a31.942,31.942,0,0,1,36.033-31.737,47.87,47.87,0,0,0,0,63.474A31.942,31.942,0,0,1,56,344Zm72,32a32.139,32.139,0,0,1-4.033-.263,47.87,47.87,0,0,0,0-63.474A32,32,0,1,1,128,376Z"/><path d="M408,304H272a8,8,0,0,0,0,16H408a8,8,0,0,0,0-16Z"/><path d="M408,328H304a8,8,0,0,0,0,16H408a8,8,0,0,0,0-16Z"/><path d="M360,352h-8a8,8,0,0,0,0,16h8a8,8,0,0,0,0-16Z"/><path d="M408,352H384a8,8,0,0,0,0,16h24a8,8,0,0,0,0-16Z"/></g></svg>
