<svg height="512" viewBox="0 0 512 512" width="512" xmlns="http://www.w3.org/2000/svg"><path d="m88 376a24 24 0 1 0 24 24 24.027 24.027 0 0 0 -24-24zm0 32a8 8 0 1 1 8-8 8.009 8.009 0 0 1 -8 8z"/><path d="m424 376a24 24 0 1 0 24 24 24.027 24.027 0 0 0 -24-24zm0 32a8 8 0 1 1 8-8 8.009 8.009 0 0 1 -8 8z"/><path d="m495.922 304.376-10.29-.016-31-90.65a8 8 0 0 0 -7.557-5.411l-87-.136.1-64a8 8 0 0 0 -7.988-8.013l-113.365-.177a53.826 53.826 0 0 0 2-13.382 69.615 69.615 0 1 0 -139.23-.218 53.839 53.839 0 0 0 1.959 13.388l-87.365-.137a8 8 0 0 0 -8.013 7.988l-.4 256a8 8 0 0 0 7.988 8.013l16.58.026a55.993 55.993 0 0 0 110.839.173l225.161.353a55.993 55.993 0 0 0 110.839.174l16.58.026a8 8 0 0 0 8.013-7.988l.138-88a8 8 0 0 0 -7.989-8.013zm-54.631-80.376 27.5 80h-108.791v-80zm-270.291-155a53.676 53.676 0 0 1 53.615 53.615c0 22.878-34.292 75.707-53.616 102.8-19.323-27.091-53.614-79.911-53.614-102.8a53.676 53.676 0 0 1 53.615-53.615zm-147 83h84.917q8.014 19.215 24.477 45.784c15.41 24.854 30.563 45.156 31.2 46.008a8 8 0 0 0 12.812 0c.637-.852 15.79-21.154 31.2-46.008q16.451-26.527 24.477-45.784h110.917v240h-200.581a55.992 55.992 0 0 0 -110.838 0h-8.581zm64 288a40 40 0 1 1 40-40 40.045 40.045 0 0 1 -40 40zm336 0a40 40 0 1 1 40-40 40.045 40.045 0 0 1 -40 40zm64-48h-8.581a55.992 55.992 0 0 0 -110.838 0h-8.581v-72h128z"/><path d="m206.507 120.292a35.507 35.507 0 1 0 -35.507 35.508 35.547 35.547 0 0 0 35.507-35.508zm-55.014 0a19.507 19.507 0 1 1 19.507 19.508 19.528 19.528 0 0 1 -19.507-19.508z"/><path d="m80 320h192a8 8 0 0 0 0-16h-184v-8h80a8 8 0 0 0 8-8v-24a8 8 0 0 0 -16 0v16h-80a8 8 0 0 0 -8 8v24a8 8 0 0 0 8 8z"/><path d="m296 319h8a8 8 0 0 0 0-16h-8a8 8 0 0 0 0 16z"/><path d="m296 368h-64a8 8 0 0 0 0 16h64a8 8 0 0 0 0-16z"/><path d="m320 384h8a8 8 0 0 0 0-16h-8a8 8 0 0 0 0 16z"/></svg>