<?xml version="1.0" encoding="iso-8859-1"?>
<!-- Generator: Adobe Illustrator 19.0.0, SVG Export Plug-In . SVG Version: 6.00 Build 0)  -->
<svg version="1.1" id="Capa_1" xmlns="http://www.w3.org/2000/svg" xmlns:xlink="http://www.w3.org/1999/xlink" x="0px" y="0px"
	 viewBox="0 0 496 496" style="enable-background:new 0 0 496 496;" xml:space="preserve">
<g>
	<g>
		<g>
			<path d="M495.896,183.463c-0.017-0.327-0.055-0.653-0.112-0.976c-0.072-0.34-0.168-0.674-0.288-1
				c-0.124-0.376-0.276-0.743-0.456-1.096c-0.052-0.174-0.113-0.345-0.184-0.512c-0.056-0.104-0.168-0.152-0.232-0.256
				c-0.184-0.265-0.388-0.516-0.608-0.752c-0.271-0.315-0.565-0.609-0.88-0.88c-0.253-0.222-0.52-0.428-0.8-0.616
				c-0.104-0.064-0.152-0.176-0.256-0.232L408,126.671V71.999c0-4.418-3.582-8-8-8h-96.424L252.12,33.143
				c-2.535-1.523-5.705-1.523-8.24,0l-51.456,30.856H96c-4.418,0-8,3.582-8,8v54.672L3.88,177.143
				c-0.104,0.056-0.152,0.168-0.256,0.232c-0.263,0.187-0.514,0.39-0.752,0.608c-0.553,0.48-1.054,1.016-1.496,1.6
				c-0.064,0.104-0.176,0.152-0.232,0.256c-0.072,0.169-0.133,0.343-0.184,0.52c-0.177,0.349-0.329,0.71-0.456,1.08
				c-0.12,0.329-0.216,0.665-0.288,1.008c-0.057,0.323-0.095,0.649-0.112,0.976c0,0.184-0.104,0.344-0.104,0.536v256.04
				c0,13.255,10.745,24,24,24h448c13.255,0,24-10.745,24-24v-256C496,183.807,495.904,183.647,495.896,183.463z M408,145.327
				l64.448,38.672L408,222.671V145.327z M248,49.327l24.464,14.672h-48.928L248,49.327z M104,79.999h288v152.272l-44,26.4
				l-95.88-57.528c-2.535-1.523-5.705-1.523-8.24,0L148,258.671l-44-26.4V79.999z M88,145.327v77.344l-64.448-38.672L88,145.327z
				 M16,198.127l116.448,69.872L16,337.871V198.127z M480,439.999c0,4.418-3.582,8-8,8H24c-4.418,0-8-3.582-8-8v-83.472l232-139.2
				l232,139.2V439.999z M480,337.871l-116.448-69.872L480,198.127V337.871z"/>
			<path d="M56,415.999h-8v-24c0-4.418-3.582-8-8-8s-8,3.582-8,8v32c0,4.418,3.582,8,8,8h16c4.418,0,8-3.582,8-8
				S60.418,415.999,56,415.999z"/>
			<path d="M104,415.999H88c-4.418,0-8,3.582-8,8s3.582,8,8,8h16c4.418,0,8-3.582,8-8S108.418,415.999,104,415.999z"/>
		</g>
	</g>
</g>
<g>
</g>
<g>
</g>
<g>
</g>
<g>
</g>
<g>
</g>
<g>
</g>
<g>
</g>
<g>
</g>
<g>
</g>
<g>
</g>
<g>
</g>
<g>
</g>
<g>
</g>
<g>
</g>
<g>
</g>
</svg>
