<?xml version="1.0" encoding="iso-8859-1"?>
<!-- Generator: Adobe Illustrator 19.0.0, SVG Export Plug-In . SVG Version: 6.00 Build 0)  -->
<svg version="1.1" id="Capa_1" xmlns="http://www.w3.org/2000/svg" xmlns:xlink="http://www.w3.org/1999/xlink" x="0px" y="0px"
	 viewBox="0 0 496 496" style="enable-background:new 0 0 496 496;" xml:space="preserve">
<g>
	<g>
		<g>
			<path d="M472,104H24c-13.255,0-24,10.745-24,24v240c0,13.255,10.745,24,24,24h448c13.255,0,24-10.745,24-24V128
				C496,114.745,485.255,104,472,104z M480,368c0,4.418-3.582,8-8,8H24c-4.418,0-8-3.582-8-8V158.128l227.88,136.728
				c2.535,1.523,5.705,1.523,8.24,0L480,158.128V368z M480,139.472l-232,139.2l-232-139.2V128c0-4.418,3.582-8,8-8h448
				c4.418,0,8,3.582,8,8V139.472z"/>
			<path d="M432,352h16c4.418,0,8-3.582,8-8v-32c0-4.418-3.582-8-8-8s-8,3.582-8,8v24h-8c-4.418,0-8,3.582-8,8S427.582,352,432,352z
				"/>
			<path d="M384,352h16c4.418,0,8-3.582,8-8s-3.582-8-8-8h-16c-4.418,0-8,3.582-8,8S379.582,352,384,352z"/>
		</g>
	</g>
</g>
<g>
</g>
<g>
</g>
<g>
</g>
<g>
</g>
<g>
</g>
<g>
</g>
<g>
</g>
<g>
</g>
<g>
</g>
<g>
</g>
<g>
</g>
<g>
</g>
<g>
</g>
<g>
</g>
<g>
</g>
</svg>
