<?xml version="1.0"?>
<svg xmlns="http://www.w3.org/2000/svg" width="512" height="512" viewBox="0 0 512 512"><g><path d="M480,104H32A24.032,24.032,0,0,0,8,128V368a24.032,24.032,0,0,0,24,24H160v24a24.032,24.032,0,0,0,24,24H424a24.032,24.032,0,0,0,24-24V392h32a24.032,24.032,0,0,0,24-24V128A24.032,24.032,0,0,0,480,104ZM160,272V376H144a8.011,8.011,0,0,1-8-8V224a8.011,8.011,0,0,1,8-8H384a8.011,8.011,0,0,1,8,8v24H184A24.032,24.032,0,0,0,160,272Zm272,40H320a8,8,0,0,0,0,16H432v88a8.011,8.011,0,0,1-8,8H264V376a8,8,0,0,0-16,0v48H184a8.011,8.011,0,0,1-8-8V328h16a8,8,0,0,0,0-16H176V272a8.011,8.011,0,0,1,8-8h64v8a8,8,0,0,0,16,0v-8H424a8.011,8.011,0,0,1,8,8Zm56,56a8.011,8.011,0,0,1-8,8H448V272a24.032,24.032,0,0,0-24-24H408V224a24.032,24.032,0,0,0-24-24H144a24.032,24.032,0,0,0-24,24V368a23.841,23.841,0,0,0,1.38,8H32a8.011,8.011,0,0,1-8-8V168H488Zm0-216H24V128a8.011,8.011,0,0,1,8-8H480a8.011,8.011,0,0,1,8,8Z"/><circle cx="48" cy="136" r="8"/><circle cx="73" cy="136" r="8"/><circle cx="97" cy="136" r="8"/><path d="M304,316a27.981,27.981,0,0,0-48-19.569A27.992,27.992,0,1,0,236,344h.686l-18.343,18.343a8,8,0,0,0,11.314,11.314L256,347.314l26.343,26.343a8,8,0,0,0,11.314-11.314L275.314,344H276A28.032,28.032,0,0,0,304,316Zm-28-12a12,12,0,0,1,0,24H264V316A12.013,12.013,0,0,1,276,304Zm-52,12a12,12,0,0,1,24,0v12H236A12.013,12.013,0,0,1,224,316Z"/><path d="M416,344H368a8,8,0,0,0-8,8v24a8,8,0,0,0,8,8h48a8,8,0,0,0,8-8V352A8,8,0,0,0,416,344Zm-8,24H376v-8h32Z"/><path d="M384,392H368a8,8,0,0,0,0,16h16a8,8,0,0,0,0-16Z"/><path d="M416,392h-8a8,8,0,0,0,0,16h8a8,8,0,0,0,0-16Z"/></g></svg>
