<?xml version="1.0"?>
<svg xmlns="http://www.w3.org/2000/svg" viewBox="0 0 64 64" width="512" height="512"><g id="Check_in" data-name="Check in"><path d="M55.97,61.757l-4-16A1,1,0,0,0,51,45H39.441C44.112,36.624,50,24.9,50,19a18,18,0,0,0-36,0c0,5.907,6.608,17.619,11.862,26H13a1,1,0,0,0-.97.757l-4,16A1,1,0,0,0,9,63H55a1,1,0,0,0,.97-1.243ZM32,3A16.019,16.019,0,0,1,48,19c0,7.812-11.832,27.859-15.05,33.167C29.376,46.93,16,26.81,16,19A16.019,16.019,0,0,1,32,3ZM10.281,61l3.5-14H27.13c2.7,4.208,4.8,7.223,5.052,7.575A1,1,0,0,0,33,55h.027a1,1,0,0,0,.821-.47c.219-.351,2.081-3.346,4.465-7.53H50.219l3.5,14Z"/><path d="M39,16a7,7,0,1,0-7,7A7.008,7.008,0,0,0,39,16Zm-7,5a5,5,0,1,1,5-5A5.006,5.006,0,0,1,32,21Z"/><path d="M47,58H36a1,1,0,0,0,0,2H47a1,1,0,0,0,0-2Z"/><path d="M49,59a1,1,0,0,0,1,1h1a1,1,0,0,0,0-2H50A1,1,0,0,0,49,59Z"/></g></svg>
