<svg height="512" viewBox="0 0 64 64" width="512" xmlns="http://www.w3.org/2000/svg"><g id="Lock-2" data-name="Lock"><path d="m46 23h-25v-9a11 11 0 0 1 22 0 1 1 0 0 0 2 0 13 13 0 0 0 -26 0v9h-1a3 3 0 0 0 -3 3v34a3 3 0 0 0 3 3h28a3 3 0 0 0 3-3v-34a3 3 0 0 0 -3-3zm1 37a1 1 0 0 1 -1 1h-28a1 1 0 0 1 -1-1v-34a1 1 0 0 1 1-1h28a1 1 0 0 1 1 1z"/><path d="m35 41.8v-6.8a3 3 0 0 0 -6 0v6.8a6 6 0 0 0 1.726 11.068 6.253 6.253 0 0 0 1.265.132 6 6 0 0 0 3.009-11.2zm-.479 8.3a4 4 0 0 1 -6.459-2.384 4.043 4.043 0 0 1 2.343-4.4 1 1 0 0 0 .595-.906v-7.41a1 1 0 0 1 2 0v7.41a1 1 0 0 0 .595.914 4.033 4.033 0 0 1 2.405 3.676 3.983 3.983 0 0 1 -1.479 3.1z"/><path d="m27 58h-8a1 1 0 0 0 0 2h8a1 1 0 0 0 0-2z"/><path d="m31 58h-1a1 1 0 0 0 0 2h1a1 1 0 0 0 0-2z"/></g></svg>