<svg height="512" viewBox="0 0 64 64" width="512" xmlns="http://www.w3.org/2000/svg"><path d="m32 35a5 5 0 1 0 5 5 5.006 5.006 0 0 0 -5-5zm0 8a3 3 0 1 1 3-3 3 3 0 0 1 -3 3z"/><path d="m30 48h-7a1 1 0 0 0 0 2h7a1 1 0 0 0 0-2z"/><path d="m34 48h-1a1 1 0 0 0 0 2h1a1 1 0 0 0 0-2z"/><path d="m58 31h4a1 1 0 0 0 1-1v-4a1 1 0 0 0 -1-1h-4a1 1 0 0 0 -1 1v1h-8a1 1 0 0 0 -1 1v6h-3v-6a1 1 0 0 0 -1-1h-2v-9a9.01 9.01 0 0 0 -9-9h-2a9.01 9.01 0 0 0 -9 9v9h-2a1 1 0 0 0 -1 1v6h-3v-6a1 1 0 0 0 -1-1h-8v-1a1 1 0 0 0 -1-1h-4a1 1 0 0 0 -1 1v4a1 1 0 0 0 1 1h4a1 1 0 0 0 1-1v-1h7v6a1 1 0 0 0 1 1h4v3h-12v-1a1 1 0 0 0 -1-1h-4a1 1 0 0 0 -1 1v4a1 1 0 0 0 1 1h4a1 1 0 0 0 1-1v-1h12v3h-4a1 1 0 0 0 -1 1v6h-7v-1a1 1 0 0 0 -1-1h-4a1 1 0 0 0 -1 1v4a1 1 0 0 0 1 1h4a1 1 0 0 0 1-1v-1h8a1 1 0 0 0 1-1v-6h3v6a1 1 0 0 0 1 1h24a1 1 0 0 0 1-1v-6h3v6a1 1 0 0 0 1 1h8v1a1 1 0 0 0 1 1h4a1 1 0 0 0 1-1v-4a1 1 0 0 0 -1-1h-4a1 1 0 0 0 -1 1v1h-7v-6a1 1 0 0 0 -1-1h-4v-3h12v1a1 1 0 0 0 1 1h4a1 1 0 0 0 1-1v-4a1 1 0 0 0 -1-1h-4a1 1 0 0 0 -1 1v1h-12v-3h4a1 1 0 0 0 1-1v-6h7v1a1 1 0 0 0 1 1zm1-4h2v2h-2zm-54 2h-2v-2h2zm0 12h-2v-2h2zm0 12h-2v-2h2zm19-35a7.008 7.008 0 0 1 7-7h2a7.008 7.008 0 0 1 7 7v9h-2v-9a5.006 5.006 0 0 0 -5-5h-2a5.006 5.006 0 0 0 -5 5v9h-2zm12 9h-8v-9a3 3 0 0 1 3-3h2a3 3 0 0 1 3 3zm7 24h-22v-22h22zm16 0h2v2h-2zm0-12h2v2h-2z"/></svg>