<svg height="496pt" viewBox="-104 0 496 496" width="496pt" xmlns="http://www.w3.org/2000/svg"><g fill="#231f20"><path d="m248 208h-16v-120c0-48.601562-39.398438-88-88-88s-88 39.398438-88 88v120h-16c-22.082031.027344-39.9726562 17.917969-40 40v208c.0273438 22.082031 17.917969 39.972656 40 40h208c22.082031-.027344 39.972656-17.917969 40-40v-208c-.027344-22.082031-17.917969-39.972656-40-40zm-176-120c0-39.765625 32.234375-72 72-72s72 32.234375 72 72v120h-144zm200 368c0 13.253906-10.746094 24-24 24h-208c-13.253906 0-24-10.746094-24-24v-208c0-13.253906 10.746094-24 24-24h208c13.253906 0 24 10.746094 24 24zm0 0"/><path d="m144 312c-26.507812 0-48 21.492188-48 48s21.492188 48 48 48 48-21.492188 48-48c-.027344-26.5-21.5-47.972656-48-48zm0 80c-17.671875 0-32-14.328125-32-32s14.328125-32 32-32 32 14.328125 32 32-14.328125 32-32 32zm0 0"/><path d="m88 240h-48c-4.417969 0-8 3.582031-8 8s3.582031 8 8 8h48c4.417969 0 8-3.582031 8-8s-3.582031-8-8-8zm0 0"/><path d="m112 256h8c4.417969 0 8-3.582031 8-8s-3.582031-8-8-8h-8c-4.417969 0-8 3.582031-8 8s3.582031 8 8 8zm0 0"/></g></svg>