<svg height="496pt" viewBox="0 0 496 496" width="496pt" xmlns="http://www.w3.org/2000/svg"><g fill="#231f20"><path d="m248 240c66.273438 0 120-53.726562 120-120s-53.726562-120-120-120-120 53.726562-120 120c.074219 66.242188 53.757812 119.925781 120 120zm0-224c57.4375 0 104 46.5625 104 104s-46.5625 104-104 104-104-46.5625-104-104c.066406-57.410156 46.589844-103.933594 104-104zm0 0"/><path d="m264 256h-32c-128.066406.148438-231.851562 103.933594-232 232 0 4.417969 3.582031 8 8 8h480c4.417969 0 8-3.582031 8-8-.148438-128.066406-103.933594-231.851562-232-232zm-247.847656 224c4.429687-116.042969 99.71875-207.871094 215.847656-208h32c116.128906.128906 211.417969 91.957031 215.847656 208zm0 0"/><path d="m368 456c0 4.417969 3.582031 8 8 8h48c4.417969 0 8-3.582031 8-8s-3.582031-8-8-8h-48c-4.417969 0-8 3.582031-8 8zm0 0"/><path d="m448 464h8c4.417969 0 8-3.582031 8-8s-3.582031-8-8-8h-8c-4.417969 0-8 3.582031-8 8s3.582031 8 8 8zm0 0"/></g></svg>