<svg id="Sales" height="512" viewBox="0 0 64 64" width="512" xmlns="http://www.w3.org/2000/svg"><path d="m48.781 17.375-8-10a1 1 0 0 0 -.781-.375h-1v-2a4 4 0 0 0 -8 0v2h-7a1 1 0 0 0 -.781.375l-8 10a1 1 0 0 0 -.219.625v44a1 1 0 0 0 1 1h32a1 1 0 0 0 1-1v-44a1 1 0 0 0 -.219-.625zm-15.781-12.375a2 2 0 0 1 4 0v2h-4zm14 56h-30v-42.649l7.48-9.351h12.52v5a1.989 1.989 0 0 1 -.165.791 5.012 5.012 0 1 0 -.121 2.808 3.993 3.993 0 0 0 2.286-3.599v-5h.52l7.48 9.351zm-12-45a2 2 0 0 1 -2-2v-.816a3 3 0 0 1 2 2.816zm-.72 1.927a2.99 2.99 0 1 1 -3.28-4.743v.816a4 4 0 0 0 3.28 3.927z"/><path d="m19 24v30a1 1 0 0 0 1 1h24a1 1 0 0 0 1-1v-30a1 1 0 0 0 -1-1h-24a1 1 0 0 0 -1 1zm2 1h22v28h-22z"/><path d="m39.293 30.293-16 16a1 1 0 1 0 1.414 1.414l16-16a1 1 0 0 0 -1.414-1.414z"/><path d="m26.5 37a3.5 3.5 0 1 0 -3.5-3.5 3.5 3.5 0 0 0 3.5 3.5zm0-5a1.5 1.5 0 1 1 -1.5 1.5 1.5 1.5 0 0 1 1.5-1.5z"/><path d="m37.5 41a3.5 3.5 0 1 0 3.5 3.5 3.5 3.5 0 0 0 -3.5-3.5zm0 5a1.5 1.5 0 1 1 1.5-1.5 1.5 1.5 0 0 1 -1.5 1.5z"/><path d="m44 57h-1a1 1 0 0 0 0 2h1a1 1 0 0 0 0-2z"/><path d="m40 57h-7a1 1 0 0 0 0 2h7a1 1 0 0 0 0-2z"/></svg>