<?xml version="1.0" encoding="iso-8859-1"?>
<!-- Generator: Adobe Illustrator 19.0.0, SVG Export Plug-In . SVG Version: 6.00 Build 0)  -->
<svg version="1.1" id="Capa_1" xmlns="http://www.w3.org/2000/svg" xmlns:xlink="http://www.w3.org/1999/xlink" x="0px" y="0px"
	 viewBox="0 0 512 512" style="enable-background:new 0 0 512 512;" xml:space="preserve">
<g>
	<g>
		<g>
			<path d="M398.056,158.12L312.16,58.768c-1.521-1.759-3.731-2.769-6.056-2.768H264V8c0-4.418-3.582-8-8-8s-8,3.582-8,8v48h-42.104
				c-2.325-0.001-4.535,1.009-6.056,2.768l-85.896,99.352c-1.255,1.454-1.945,3.311-1.944,5.232V504c0,4.418,3.582,8,8,8h272
				c4.418,0,8-3.582,8-8V163.352C400.001,161.431,399.311,159.574,398.056,158.12z M384,496H128V166.328L209.552,72h92.896
				L384,166.328V496z"/>
			<path d="M288,128c0-17.673-14.327-32-32-32c-17.673,0-32,14.327-32,32s14.327,32,32,32C273.673,160,288,145.673,288,128z
				 M256,144c-8.837,0-16-7.163-16-16s7.163-16,16-16s16,7.163,16,16S264.837,144,256,144z"/>
			<path d="M192,264c4.418,0,8-3.582,8-8s-3.582-8-8-8h-32c-4.418,0-8,3.582-8,8v32c0,4.418,3.582,8,8,8h24v16h-24
				c-4.418,0-8,3.582-8,8s3.582,8,8,8h32c4.418,0,8-3.582,8-8v-32c0-4.418-3.582-8-8-8h-24v-16H192z"/>
			<path d="M248,248h-32c-4.418,0-8,3.582-8,8v64c0,4.418,3.582,8,8,8s8-3.582,8-8v-24h16v24c0,4.418,3.582,8,8,8s8-3.582,8-8v-64
				C256,251.582,252.418,248,248,248z M240,280h-16v-16h16V280z"/>
			<path d="M296,312h-16v-56c0-4.418-3.582-8-8-8s-8,3.582-8,8v64c0,4.418,3.582,8,8,8h24c4.418,0,8-3.582,8-8S300.418,312,296,312z
				"/>
			<path d="M320,328h32c4.418,0,8-3.582,8-8s-3.582-8-8-8h-24v-16h24c4.418,0,8-3.582,8-8s-3.582-8-8-8h-24v-16h24
				c4.418,0,8-3.582,8-8s-3.582-8-8-8h-32c-4.418,0-8,3.582-8,8v64C312,324.418,315.582,328,320,328z"/>
			<path d="M184,464h-24v-40c0-4.418-3.582-8-8-8s-8,3.582-8,8v48c0,4.418,3.582,8,8,8h32c4.418,0,8-3.582,8-8S188.418,464,184,464z
				"/>
			<path d="M232,464h-16c-4.418,0-8,3.582-8,8s3.582,8,8,8h16c4.418,0,8-3.582,8-8S236.418,464,232,464z"/>
		</g>
	</g>
</g>
<g>
</g>
<g>
</g>
<g>
</g>
<g>
</g>
<g>
</g>
<g>
</g>
<g>
</g>
<g>
</g>
<g>
</g>
<g>
</g>
<g>
</g>
<g>
</g>
<g>
</g>
<g>
</g>
<g>
</g>
</svg>
