<?xml version="1.0" encoding="iso-8859-1"?>
<!-- Generator: Adobe Illustrator 19.0.0, SVG Export Plug-In . SVG Version: 6.00 Build 0)  -->
<svg version="1.1" id="Capa_1" xmlns="http://www.w3.org/2000/svg" xmlns:xlink="http://www.w3.org/1999/xlink" x="0px" y="0px"
	 viewBox="0 0 496 496" style="enable-background:new 0 0 496 496;" xml:space="preserve">
<g>
	<g>
		<path d="M248,0C111.033,0,0,111.033,0,248s111.033,248,248,248s248-111.033,248-248C495.841,111.099,384.901,0.159,248,0z
			 M248,480C119.87,480,16,376.13,16,248S119.87,16,248,16s232,103.87,232,232C479.859,376.072,376.072,479.859,248,480z"/>
	</g>
</g>
<g>
	<g>
		<path d="M342.858,141.203c-16.231-35.951-51.402-59.625-90.818-61.131c-57.394-2.231-105.73,42.487-107.962,99.881
			C144.026,181.302,144,182.651,144,184c0,4.418,3.582,8,8,8s8-3.582,8-8c-0.002-48.601,39.396-88.001,87.997-88.003
			c1.145,0,2.291,0.022,3.435,0.067c45.623,2.437,82.067,38.881,84.504,84.504c1.466,35.814-18.989,68.923-51.672,83.64
			c-26.649,11.376-44.027,37.458-44.264,66.432V352c0,4.418,3.582,8,8,8s8-3.582,8-8v-21.36
			c0.284-22.678,13.97-43.035,34.864-51.856C343.214,255.15,366.493,193.553,342.858,141.203z"/>
	</g>
</g>
<g>
	<g>
		<path d="M248,376c-17.673,0-32,14.327-32,32c0,17.673,14.327,32,32,32c17.673,0,32-14.327,32-32C280,390.327,265.673,376,248,376z
			 M248,424c-8.837,0-16-7.163-16-16s7.163-16,16-16s16,7.163,16,16S256.837,424,248,424z"/>
	</g>
</g>
<g>
</g>
<g>
</g>
<g>
</g>
<g>
</g>
<g>
</g>
<g>
</g>
<g>
</g>
<g>
</g>
<g>
</g>
<g>
</g>
<g>
</g>
<g>
</g>
<g>
</g>
<g>
</g>
<g>
</g>
</svg>
