<?xml version="1.0" encoding="iso-8859-1"?>
<!-- Generator: Adobe Illustrator 19.0.0, SVG Export Plug-In . SVG Version: 6.00 Build 0)  -->
<svg version="1.1" id="Capa_1" xmlns="http://www.w3.org/2000/svg" xmlns:xlink="http://www.w3.org/1999/xlink" x="0px" y="0px"
	 viewBox="0 0 512 512" style="enable-background:new 0 0 512 512;" xml:space="preserve">
<g>
	<g>
		<g>
			<path d="M504.912,132.056l-136-15.696c-4.372-0.639-8.434,2.386-9.073,6.758c-0.639,4.372,2.386,8.434,6.758,9.073
				c0.163,0.024,0.327,0.043,0.491,0.056L496,147.136V300c0,30.872-30.344,56-67.632,56H96V100.976l135.4,15.616
				c4.336,0.545,8.292-2.528,8.837-6.864c0.007-0.056,0.013-0.112,0.019-0.168c0.502-4.387-2.646-8.35-7.032-8.856L96,84.872V44
				c0-4.418-3.582-8-8-8H8c-4.418,0-8,3.582-8,8s3.582,8,8,8h72v360c0,4.418,3.582,8,8,8h8.208c-5.294,6.883-8.179,15.316-8.208,24
				c0,22.091,17.909,40,40,40s40-17.909,40-40c-0.029-8.684-2.914-17.117-8.208-24h208.416c-5.294,6.883-8.179,15.316-8.208,24
				c0,22.091,17.909,40,40,40c22.091,0,40-17.909,40-40c0-22.091-17.909-40-40-40H96v-32h332.368c46.12,0,83.632-32.296,83.632-72
				V140C511.998,135.936,508.949,132.519,504.912,132.056z M400,420c13.255,0,24,10.745,24,24s-10.745,24-24,24s-24-10.745-24-24
				S386.745,420,400,420z M128,420c13.255,0,24,10.745,24,24s-10.745,24-24,24s-24-10.745-24-24S114.745,420,128,420z"/>
			<path d="M242.872,178.152l48,40c0.152,0.12,0.336,0.168,0.496,0.28c0.386,0.307,0.801,0.575,1.24,0.8
				c0.096,0.048,0.208,0,0.312,0.072c0.97,0.434,2.017,0.671,3.08,0.696c1.047-0.017,2.081-0.243,3.04-0.664
				c0.292-0.143,0.575-0.303,0.848-0.48c0.434-0.195,0.85-0.431,1.24-0.704l48-40c3.398-2.832,3.856-7.882,1.024-11.28
				c-2.832-3.398-7.882-3.856-11.28-1.024L304,194.92V36c0-4.418-3.582-8-8-8s-8,3.582-8,8v158.912l-34.872-29.064
				c-3.398-2.832-8.448-2.374-11.28,1.024C239.016,170.27,239.474,175.32,242.872,178.152z"/>
			<path d="M128,268c-4.418,0-8,3.582-8,8v48c0,4.418,3.582,8,8,8h48c4.418,0,8-3.582,8-8s-3.582-8-8-8h-40v-40
				C136,271.582,132.418,268,128,268z"/>
			<path d="M224,316h-16c-4.418,0-8,3.582-8,8s3.582,8,8,8h16c4.418,0,8-3.582,8-8S228.418,316,224,316z"/>
		</g>
	</g>
</g>
<g>
</g>
<g>
</g>
<g>
</g>
<g>
</g>
<g>
</g>
<g>
</g>
<g>
</g>
<g>
</g>
<g>
</g>
<g>
</g>
<g>
</g>
<g>
</g>
<g>
</g>
<g>
</g>
<g>
</g>
</svg>
