<?xml version="1.0" encoding="iso-8859-1"?>
<!-- Generator: Adobe Illustrator 19.0.0, SVG Export Plug-In . SVG Version: 6.00 Build 0)  -->
<svg version="1.1" id="Capa_1" xmlns="http://www.w3.org/2000/svg" xmlns:xlink="http://www.w3.org/1999/xlink" x="0px" y="0px"
	 viewBox="0 0 512 512" style="enable-background:new 0 0 512 512;" xml:space="preserve">
<g>
	<g>
		<path d="M504.92,128.056L96,80.872V40c0-4.418-3.582-8-8-8H8c-4.418,0-8,3.582-8,8s3.582,8,8,8h72v360c0,4.418,3.582,8,8,8h8.208
			c-5.294,6.883-8.179,15.316-8.208,24c0,22.091,17.909,40,40,40s40-17.909,40-40c-0.029-8.684-2.914-17.117-8.208-24h208.416
			c-5.294,6.883-8.179,15.316-8.208,24c0,22.091,17.909,40,40,40c22.091,0,40-17.909,40-40c0-22.091-17.909-40-40-40H96v-32h332.36
			c46.12,0,83.64-32.296,83.64-72V136C511.999,131.939,508.954,128.523,504.92,128.056z M400,416c13.255,0,24,10.745,24,24
			s-10.745,24-24,24s-24-10.745-24-24S386.745,416,400,416z M128,416c13.255,0,24,10.745,24,24s-10.745,24-24,24s-24-10.745-24-24
			S114.745,416,128,416z M496,296c0,30.872-30.336,56-67.64,56H96V96.976l400,46.16V296z"/>
	</g>
</g>
<g>
	<g>
		<path d="M176,312h-40v-40c0-4.418-3.582-8-8-8s-8,3.582-8,8v48c0,4.418,3.582,8,8,8h48c4.418,0,8-3.582,8-8S180.418,312,176,312z"
			/>
	</g>
</g>
<g>
	<g>
		<path d="M224,312h-16c-4.418,0-8,3.582-8,8s3.582,8,8,8h16c4.418,0,8-3.582,8-8S228.418,312,224,312z"/>
	</g>
</g>
<g>
</g>
<g>
</g>
<g>
</g>
<g>
</g>
<g>
</g>
<g>
</g>
<g>
</g>
<g>
</g>
<g>
</g>
<g>
</g>
<g>
</g>
<g>
</g>
<g>
</g>
<g>
</g>
<g>
</g>
</svg>
