<?xml version="1.0"?>
<svg xmlns="http://www.w3.org/2000/svg" viewBox="0 0 512 512" width="512" height="512"><g id="Candy_shop-2" data-name="Candy shop"><path d="M464,424H432V264a24.028,24.028,0,0,0,24-24V160h-.017a7.985,7.985,0,0,0-1.354-4.478l-48.637-72A8,8,0,0,0,399.363,80H112.637a8,8,0,0,0-6.629,3.522l-48.637,72A7.985,7.985,0,0,0,56.017,160H56v80a24.028,24.028,0,0,0,24,24V424H16a8,8,0,0,0,0,16H464a8,8,0,0,0,0-16ZM440,240a8.009,8.009,0,0,1-8,8H416a8.009,8.009,0,0,1-8-8V200h32Zm-80-40h32v40a8.009,8.009,0,0,1-8,8H368a8.009,8.009,0,0,1-8-8ZM72,184V168H440v16Zm240,16h32v40a8.009,8.009,0,0,1-8,8H320a8.009,8.009,0,0,1-8-8Zm-48,0h32v40a8.009,8.009,0,0,1-8,8H272a8.009,8.009,0,0,1-8-8Zm-48,0h32v40a8.009,8.009,0,0,1-8,8H224a8.009,8.009,0,0,1-8-8Zm-48,0h32v40a8.009,8.009,0,0,1-8,8H176a8.009,8.009,0,0,1-8-8Zm-48,0h32v40a8.009,8.009,0,0,1-8,8H128a8.009,8.009,0,0,1-8-8ZM116.887,96H395.113l37.828,56H79.059ZM72,240V200h32v40a8.009,8.009,0,0,1-8,8H80A8.009,8.009,0,0,1,72,240ZM296,424V304h80V424Zm96,0V296a8,8,0,0,0-8-8H288a8,8,0,0,0-8,8V424H96V264a23.9,23.9,0,0,0,16-6.131A23.9,23.9,0,0,0,128,264h16a23.9,23.9,0,0,0,16-6.131A23.9,23.9,0,0,0,176,264h16a23.9,23.9,0,0,0,16-6.131A23.9,23.9,0,0,0,224,264h16a23.9,23.9,0,0,0,16-6.131A23.9,23.9,0,0,0,272,264h16a23.9,23.9,0,0,0,16-6.131A23.9,23.9,0,0,0,320,264h16a23.9,23.9,0,0,0,16-6.131A23.9,23.9,0,0,0,368,264h16a23.9,23.9,0,0,0,16-6.131A23.9,23.9,0,0,0,416,264V424Z"/><path d="M496,424h-8a8,8,0,0,0,0,16h8a8,8,0,0,0,0-16Z"/><path d="M264,288H128a8,8,0,0,0-8,8v64a8,8,0,0,0,8,8H264a8,8,0,0,0,8-8V296A8,8,0,0,0,264,288Zm-8,64H136V304H256Z"/></g></svg>
