<?xml version="1.0"?>
<svg xmlns="http://www.w3.org/2000/svg" viewBox="0 0 512 512" width="512" height="512"><g id="Shopping-2" data-name="Shopping"><path d="M312,216H288v-8a24.027,24.027,0,0,0-24-24H248a24.027,24.027,0,0,0-24,24v8H200a8,8,0,0,0-8,8v80a24.028,24.028,0,0,0,24,24h80a24.028,24.028,0,0,0,24-24V224A8,8,0,0,0,312,216Zm-72-8a8.009,8.009,0,0,1,8-8h16a8.009,8.009,0,0,1,8,8v8H240Zm64,96a8.009,8.009,0,0,1-8,8H216a8.009,8.009,0,0,1-8-8V232h16v8a8,8,0,0,0,16,0v-8h32v8a8,8,0,0,0,16,0v-8h16Z"/><path d="M360,8H152a40.045,40.045,0,0,0-40,40V464a40.045,40.045,0,0,0,40,40H360a40.045,40.045,0,0,0,40-40V48A40.045,40.045,0,0,0,360,8ZM299.056,24l-8,16H220.944l-8-16ZM384,464a24.027,24.027,0,0,1-24,24H152a24.027,24.027,0,0,1-24-24V48a24.027,24.027,0,0,1,24-24h43.056l13.789,27.578A8,8,0,0,0,216,56h80a8,8,0,0,0,7.155-4.422L316.944,24H360a24.027,24.027,0,0,1,24,24Z"/><path d="M192,456H152a8,8,0,0,0,0,16h40a8,8,0,0,0,0-16Z"/><path d="M224,456h-8a8,8,0,0,0,0,16h8a8,8,0,0,0,0-16Z"/></g></svg>
