<?xml version="1.0"?>
<svg xmlns="http://www.w3.org/2000/svg" viewBox="0 0 512 512" width="512" height="512"><g id="Favorite"><path d="M376,8H136a24.027,24.027,0,0,0-24,24V480a24.027,24.027,0,0,0,24,24H376a24.027,24.027,0,0,0,24-24V32A24.027,24.027,0,0,0,376,8ZM293.754,24l-4,16H222.246l-4-16ZM384,480a8.009,8.009,0,0,1-8,8H136a8.009,8.009,0,0,1-8-8V32a8.009,8.009,0,0,1,8-8h65.754l6.485,25.94A8,8,0,0,0,216,56h80a8,8,0,0,0,7.761-6.06L310.246,24H376a8.009,8.009,0,0,1,8,8Z"/><path d="M325.657,178.343A8,8,0,0,0,320,176H304a7.994,7.994,0,0,0-3.578.845L256,199.056l-44.422-22.211A7.994,7.994,0,0,0,208,176H192a8,8,0,0,0-5.657,2.343l-32,32A8,8,0,0,0,152,216v32a8,8,0,0,0,2.343,5.657l96,96a8,8,0,0,0,11.314,0l96-96A8,8,0,0,0,360,248V216a8,8,0,0,0-2.343-5.657ZM344,244.686l-88,88-88-88V219.314L195.313,192h10.8l46.311,23.155a8,8,0,0,0,7.156,0L305.889,192h10.8L344,219.314Z"/><path d="M192,464H144a8,8,0,0,0,0,16h48a8,8,0,0,0,0-16Z"/><path d="M224,464h-8a8,8,0,0,0,0,16h8a8,8,0,0,0,0-16Z"/></g></svg>
